<svg xmlns="http://www.w3.org/2000/svg" width="26" height="26" viewBox="0 0 26 26"><g transform="translate(0 -1026.362)"><circle cx="13" cy="1039.362" r="13" fill="#3a6c87"/><path fill="#fff" d="m 7.6054688,0 c -1.0986473,0 -2,0.9014 -2,2 0,1.0987 0.9013527,2 2,2 1.0986471,0 2,-0.9013 2,-2 0,-1.0986 -0.9013529,-2 -2,-2 z m 0,1 c 0.5582069,0 0.9999999,0.4418 1,1 0,0.5582 -0.4417931,1 -1,1 -0.5582071,0 -1.0000001,-0.4418 -1,-1 0,-0.5582 0.4417929,-1 1,-1 z m -5.59375,4.015625 0,0.5 0,2.484375 4.0039062,0 0,8 3.0136719,0 0,-8 L 13,8 l 0,-2.984375 -10.9882812,0 z m 1,1 L 12,6.015625 12,7 8.0292969,7 l 0,8 -1.0136719,0 0,-8 -4.0039062,0 0,-0.984375 z" color="#000" font-family="sans-serif" font-weight="400" overflow="visible" transform="translate(5.494 1031.362)" style="line-height:normal;text-indent:0;text-align:start;text-decoration-line:none;text-decoration-style:solid;text-decoration-color:#000;text-transform:none;block-progression:tb;isolation:auto;mix-blend-mode:normal"/></g></svg>